<mxfile host="drawio-plugin" modified="2022-07-27T20:00:29.822Z" agent="5.0 (Macintosh; Intel Mac OS X 12_1_0) AppleWebKit/537.36 (KHTML, like Gecko) Chrome/89.0.4389.114 Safari/537.36" etag="8cSiN4LQze4NPAGjyUW_" version="15.5.4" type="embed"><diagram id="kgpKYQtTHZ0yAKxKKP6v" name="Page-1"><mxGraphModel dx="744" dy="1769" grid="1" gridSize="10" guides="1" tooltips="1" connect="1" arrows="1" fold="1" page="1" pageScale="1" pageWidth="850" pageHeight="1100" math="0" shadow="0"><root><mxCell id="0"/><mxCell id="1" parent="0"/><mxCell id="10" value="Admin Panel" style="group;fillColor=#0050ef;rounded=0;fontColor=#ffffff;strokeColor=#001DBC;fontSize=15;" vertex="1" connectable="0" parent="1"><mxGeometry x="90" y="80" width="360" height="160" as="geometry"/></mxCell><mxCell id="2" value="&lt;font style=&quot;font-size: 17px&quot;&gt;Web (Django)&lt;/font&gt;" style="html=1;" vertex="1" parent="10"><mxGeometry y="41.9047619047619" width="136.55172413793105" height="76.19047619047619" as="geometry"/></mxCell><mxCell id="3" value="&lt;font style=&quot;font-size: 17px&quot;&gt;DB (PostgresSQL)&lt;/font&gt;" style="shape=cylinder3;whiteSpace=wrap;html=1;boundedLbl=1;backgroundOutline=1;size=15;" vertex="1" parent="10"><mxGeometry x="248.27586206896552" width="111.72413793103449" height="160" as="geometry"/></mxCell><mxCell id="6" value="" style="edgeStyle=orthogonalEdgeStyle;rounded=0;orthogonalLoop=1;jettySize=auto;html=1;startArrow=classic;startFill=1;" edge="1" parent="10" source="2" target="3"><mxGeometry relative="1" as="geometry"/></mxCell><mxCell id="8" value="tcp/ 5432" style="edgeLabel;html=1;align=center;verticalAlign=middle;resizable=0;points=[];" vertex="1" connectable="0" parent="6"><mxGeometry x="0.3556" y="-4" relative="1" as="geometry"><mxPoint x="-11" y="-19" as="offset"/></mxGeometry></mxCell><mxCell id="11" value="Nginx" style="html=1;rounded=0;fontSize=15;fillColor=none;" vertex="1" parent="1"><mxGeometry x="360" y="360" width="110" height="50" as="geometry"/></mxCell><mxCell id="14" value="tcp/5432" style="edgeStyle=orthogonalEdgeStyle;rounded=0;orthogonalLoop=1;jettySize=auto;html=1;fontSize=15;startArrow=none;startFill=0;verticalAlign=top;" edge="1" parent="1" source="3" target="12"><mxGeometry relative="1" as="geometry"/></mxCell><mxCell id="24" value="Full text search" style="group;fontSize=17;align=right;labelBackgroundColor=default;fillColor=#0050EF;" vertex="1" connectable="0" parent="1"><mxGeometry x="590" y="-130" width="360" height="370" as="geometry"/></mxCell><mxCell id="12" value="&lt;font style=&quot;font-size: 17px&quot;&gt;ETL&lt;/font&gt;&lt;br&gt;&lt;font style=&quot;font-size: 12px&quot;&gt;Synchronize DB with Search Engine&lt;/font&gt;" style="html=1;rounded=0;fontSize=15;fillColor=default;verticalAlign=middle;whiteSpace=wrap;" vertex="1" parent="24"><mxGeometry x="0.005287637698783391" y="250" width="140.563035495716" height="80" as="geometry"/></mxCell><mxCell id="17" value="&lt;font style=&quot;font-size: 17px&quot;&gt;Storage (Redis) &lt;/font&gt;&lt;br&gt;for current state" style="shape=cylinder3;whiteSpace=wrap;html=1;boundedLbl=1;backgroundOutline=1;size=15;" vertex="1" parent="24"><mxGeometry width="142.766217870257" height="160" as="geometry"/></mxCell><mxCell id="18" value="" style="edgeStyle=orthogonalEdgeStyle;rounded=0;orthogonalLoop=1;jettySize=auto;html=1;fontSize=15;startArrow=classic;startFill=1;verticalAlign=top;" edge="1" parent="24" source="12" target="17"><mxGeometry relative="1" as="geometry"/></mxCell><mxCell id="19" value="&lt;font style=&quot;font-size: 12px&quot;&gt;tcp\6379&lt;/font&gt;" style="edgeLabel;html=1;align=center;verticalAlign=middle;resizable=0;points=[];fontSize=17;" vertex="1" connectable="0" parent="18"><mxGeometry x="-0.4279" y="3" relative="1" as="geometry"><mxPoint x="38" y="-24" as="offset"/></mxGeometry></mxCell><mxCell id="13" value="&lt;font style=&quot;font-size: 17px&quot;&gt;Search Engine (ElasticSearch)&lt;/font&gt;" style="shape=cylinder3;whiteSpace=wrap;html=1;boundedLbl=1;backgroundOutline=1;size=15;" vertex="1" parent="24"><mxGeometry x="229.9958620689656" y="210" width="111.72413793103449" height="160" as="geometry"/></mxCell><mxCell id="16" value="" style="edgeStyle=orthogonalEdgeStyle;rounded=0;orthogonalLoop=1;jettySize=auto;html=1;fontSize=15;startArrow=none;startFill=0;verticalAlign=top;" edge="1" parent="24" target="13"><mxGeometry relative="1" as="geometry"><mxPoint x="222.56832313341465" y="290" as="sourcePoint"/><Array as="points"><mxPoint x="140" y="290"/><mxPoint x="140" y="290"/></Array></mxGeometry></mxCell><mxCell id="25" value="&lt;font style=&quot;font-size: 12px&quot;&gt;tcp/9200&lt;/font&gt;" style="edgeLabel;html=1;align=center;verticalAlign=middle;resizable=0;points=[];fontSize=17;" vertex="1" connectable="0" parent="16"><mxGeometry x="-0.0333" y="-4" relative="1" as="geometry"><mxPoint x="29" y="-24" as="offset"/></mxGeometry></mxCell></root></mxGraphModel></diagram></mxfile>